<svg width="24" height="24" viewBox="0 0 24 24" fill="none" xmlns="http://www.w3.org/2000/svg">
<path d="M16.425 18.175L18.9 15.7C19.0833 15.5167 19.3167 15.425 19.6 15.425C19.8833 15.425 20.1167 15.5167 20.3 15.7C20.4833 15.8833 20.575 16.1167 20.575 16.4C20.575 16.6833 20.4833 16.9167 20.3 17.1L17.125 20.275C16.925 20.475 16.6917 20.575 16.425 20.575C16.1583 20.575 15.925 20.475 15.725 20.275L14.3 18.85C14.1167 18.6667 14.025 18.4333 14.025 18.15C14.025 17.8667 14.1167 17.6333 14.3 17.45C14.4833 17.2667 14.7167 17.175 15 17.175C15.2833 17.175 15.5167 17.2667 15.7 17.45L16.425 18.175ZM4 21C3.71667 21 3.47917 20.9042 3.2875 20.7125C3.09583 20.5208 3 20.2833 3 20C3 19.7167 3.09583 19.4792 3.2875 19.2875C3.47917 19.0958 3.71667 19 4 19H11C11.2833 19 11.5208 19.0958 11.7125 19.2875C11.9042 19.4792 12 19.7167 12 20C12 20.2833 11.9042 20.5208 11.7125 20.7125C11.5208 20.9042 11.2833 21 11 21H4ZM4 17C3.71667 17 3.47917 16.9042 3.2875 16.7125C3.09583 16.5208 3 16.2833 3 16C3 15.7167 3.09583 15.4792 3.2875 15.2875C3.47917 15.0958 3.71667 15 4 15H11C11.2833 15 11.5208 15.0958 11.7125 15.2875C11.9042 15.4792 12 15.7167 12 16C12 16.2833 11.9042 16.5208 11.7125 16.7125C11.5208 16.9042 11.2833 17 11 17H4ZM4 13C3.71667 13 3.47917 12.9042 3.2875 12.7125C3.09583 12.5208 3 12.2833 3 12C3 11.7167 3.09583 11.4792 3.2875 11.2875C3.47917 11.0958 3.71667 11 4 11H20C20.2833 11 20.5208 11.0958 20.7125 11.2875C20.9042 11.4792 21 11.7167 21 12C21 12.2833 20.9042 12.5208 20.7125 12.7125C20.5208 12.9042 20.2833 13 20 13H4ZM4 9C3.71667 9 3.47917 8.90417 3.2875 8.7125C3.09583 8.52083 3 8.28333 3 8C3 7.71667 3.09583 7.47917 3.2875 7.2875C3.47917 7.09583 3.71667 7 4 7H20C20.2833 7 20.5208 7.09583 20.7125 7.2875C20.9042 7.47917 21 7.71667 21 8C21 8.28333 20.9042 8.52083 20.7125 8.7125C20.5208 8.90417 20.2833 9 20 9H4ZM4 5C3.71667 5 3.47917 4.90417 3.2875 4.7125C3.09583 4.52083 3 4.28333 3 4C3 3.71667 3.09583 3.47917 3.2875 3.2875C3.47917 3.09583 3.71667 3 4 3H20C20.2833 3 20.5208 3.09583 20.7125 3.2875C20.9042 3.47917 21 3.71667 21 4C21 4.28333 20.9042 4.52083 20.7125 4.7125C20.5208 4.90417 20.2833 5 20 5H4Z" fill="#1F1F1F"/>
</svg>
